<?xml version="1.0" encoding="UTF-8"?>
<svg xmlns="http://www.w3.org/2000/svg" xmlns:xlink="http://www.w3.org/1999/xlink" width="24pt" height="24pt" viewBox="0 0 24 24" version="1.1">
<g id="surface22095782">
<path style=" stroke:none;fill-rule:nonzero;fill:rgb(80%,80%,80%);fill-opacity:1;" d="M 12 12.121094 C 11.933594 12.121094 11.878906 12.066406 11.878906 12 C 11.878906 11.933594 11.933594 11.878906 12 11.878906 C 12.066406 11.878906 12.121094 11.933594 12.121094 12 C 12.121094 12.066406 12.066406 12.121094 12 12.121094 Z M 12 12.121094 "/>
<path style=" stroke:none;fill-rule:nonzero;fill:rgb(0%,0%,0%);fill-opacity:1;" d="M 10.28125 8.128906 C 9.09375 8.128906 8.128906 9.09375 8.128906 10.28125 L 8.128906 13.71875 C 8.128906 14.90625 9.09375 15.871094 10.28125 15.871094 L 13.71875 15.871094 C 14.90625 15.871094 15.871094 14.90625 15.871094 13.71875 L 15.871094 10.28125 C 15.871094 9.09375 14.90625 8.128906 13.71875 8.128906 Z M 14.578125 8.988281 C 14.816406 8.988281 15.011719 9.183594 15.011719 9.421875 C 15.011719 9.65625 14.816406 9.851562 14.578125 9.851562 C 14.34375 9.851562 14.148438 9.65625 14.148438 9.421875 C 14.148438 9.183594 14.34375 8.988281 14.578125 8.988281 Z M 12 9.851562 C 13.1875 9.851562 14.148438 10.8125 14.148438 12 C 14.148438 13.1875 13.1875 14.148438 12 14.148438 C 10.8125 14.148438 9.851562 13.1875 9.851562 12 C 9.851562 10.8125 10.8125 9.851562 12 9.851562 Z M 12 10.710938 C 11.289062 10.710938 10.710938 11.289062 10.710938 12 C 10.710938 12.710938 11.289062 13.289062 12 13.289062 C 12.710938 13.289062 13.289062 12.710938 13.289062 12 C 13.289062 11.289062 12.710938 10.710938 12 10.710938 Z M 12 10.710938 "/>
</g>
</svg>
